# xmcd CD database file
#
# Track frame offsets:
#	150
#	25681
#	50360
#	61336
#	87316
#	108321
#	130468
#	153256
#	175400
#	197483
#	219607
#	238553
#	259490
#	282825
#	301532
#	327002
#
# Disc length: 4488 seconds
#
# Revision: 0
# Processed by: cddbd v1.5.2PL0 Copyright (c) Steve Scherf et al.
# Submitted via: CDex 1.51
#
DISCID=d8118610
DTITLE=Blue Stone - Worlds Apart
DYEAR=2007
DGENRE=New Age
TTITLE0=Set Adrift
TTITLE1=Waters Flow
TTITLE2=Lost Sun
TTITLE3=Dreamcatcher
TTITLE4=Voleti
TTITLE5=Worlds Apart (Searching For You)
TTITLE6=Envy
TTITLE7=Take Flight
TTITLE8=Far Away
TTITLE9=Labyrinth Of Dreams
TTITLE10=Tears
TTITLE11=Event Horizon
TTITLE12=Remember This
TTITLE13=On The Wind
TTITLE14=Circles
TTITLE15=Flood
EXTD=YEAR: 2007
EXTT0=
EXTT1=
EXTT2=
EXTT3=
EXTT4=
EXTT5=
EXTT6=
EXTT7=
EXTT8=
EXTT9=
EXTT10=
EXTT11=
EXTT12=
EXTT13=
EXTT14=
EXTT15=
PLAYORDER=
